<svg xmlns="http://www.w3.org/2000/svg" width="1500" height="820" viewBox="0 0 1500 820">
<rect width="100%" height="100%" fill="#ffffff" />
<text x="750.0" y="42" text-anchor="middle" font-size="26" font-family="Arial">Best Player 1 Matchup per Scenario</text>
<line x1="90" y1="580" x2="1460" y2="580" stroke="#222" stroke-width="2"/>
<line x1="90" y1="90" x2="90" y2="580" stroke="#222" stroke-width="2"/>
<line x1="84" y1="580.0" x2="1460" y2="580.0" stroke="#d8d8d8" stroke-width="1"/>
<text x="78" y="585.0" text-anchor="end" font-size="14" font-family="Arial">0.00</text>
<line x1="84" y1="482.0" x2="1460" y2="482.0" stroke="#d8d8d8" stroke-width="1"/>
<text x="78" y="487.0" text-anchor="end" font-size="14" font-family="Arial">7.13</text>
<line x1="84" y1="384.0" x2="1460" y2="384.0" stroke="#d8d8d8" stroke-width="1"/>
<text x="78" y="389.0" text-anchor="end" font-size="14" font-family="Arial">14.26</text>
<line x1="84" y1="286.0" x2="1460" y2="286.0" stroke="#d8d8d8" stroke-width="1"/>
<text x="78" y="291.0" text-anchor="end" font-size="14" font-family="Arial">21.39</text>
<line x1="84" y1="188.0" x2="1460" y2="188.0" stroke="#d8d8d8" stroke-width="1"/>
<text x="78" y="193.0" text-anchor="end" font-size="14" font-family="Arial">28.52</text>
<line x1="84" y1="90.0" x2="1460" y2="90.0" stroke="#d8d8d8" stroke-width="1"/>
<text x="78" y="95.0" text-anchor="end" font-size="14" font-family="Arial">35.65</text>
<rect x="117.40" y="566.26" width="85.62" height="13.74" fill="#3b82f6"/>
<rect x="203.03" y="483.79" width="85.62" height="96.21" fill="#7c3aed"/>
<text x="204.17" y="604" text-anchor="middle" font-size="12" font-family="Arial">baseline</text>
<text x="204.17" y="620" text-anchor="middle" font-size="12" font-family="Arial">top_heavy</text>
<text x="204.17" y="636" text-anchor="middle" font-size="12" font-family="Arial">vs winner_take_most</text>
<rect x="345.73" y="566.26" width="85.62" height="13.74" fill="#3b82f6"/>
<rect x="431.36" y="250.13" width="85.62" height="329.87" fill="#7c3aed"/>
<text x="432.50" y="604" text-anchor="middle" font-size="12" font-family="Arial">high_value</text>
<text x="432.50" y="620" text-anchor="middle" font-size="12" font-family="Arial">weighted_value</text>
<text x="432.50" y="636" text-anchor="middle" font-size="12" font-family="Arial">vs balanced_priority</text>
<rect x="574.07" y="566.26" width="85.62" height="13.74" fill="#3b82f6"/>
<rect x="659.69" y="277.62" width="85.62" height="302.38" fill="#7c3aed"/>
<text x="660.83" y="604" text-anchor="middle" font-size="12" font-family="Arial">large</text>
<text x="660.83" y="620" text-anchor="middle" font-size="12" font-family="Arial">top_heavy</text>
<text x="660.83" y="636" text-anchor="middle" font-size="12" font-family="Arial">vs winner_take_most</text>
<rect x="802.40" y="566.26" width="85.62" height="13.74" fill="#3b82f6"/>
<rect x="888.02" y="428.81" width="85.62" height="151.19" fill="#7c3aed"/>
<text x="889.17" y="604" text-anchor="middle" font-size="12" font-family="Arial">medium</text>
<text x="889.17" y="620" text-anchor="middle" font-size="12" font-family="Arial">top_heavy</text>
<text x="889.17" y="636" text-anchor="middle" font-size="12" font-family="Arial">vs winner_take_most</text>
<rect x="1030.73" y="566.26" width="85.62" height="13.74" fill="#3b82f6"/>
<rect x="1116.36" y="515.95" width="85.62" height="64.05" fill="#7c3aed"/>
<text x="1117.50" y="604" text-anchor="middle" font-size="12" font-family="Arial">small</text>
<text x="1117.50" y="620" text-anchor="middle" font-size="12" font-family="Arial">weighted_value</text>
<text x="1117.50" y="636" text-anchor="middle" font-size="12" font-family="Arial">vs balanced_priority</text>
<rect x="1259.07" y="566.26" width="85.62" height="13.74" fill="#3b82f6"/>
<rect x="1344.69" y="153.91" width="85.62" height="426.09" fill="#7c3aed"/>
<text x="1345.83" y="604" text-anchor="middle" font-size="12" font-family="Arial">wide</text>
<text x="1345.83" y="620" text-anchor="middle" font-size="12" font-family="Arial">anti_top_heavy</text>
<text x="1345.83" y="636" text-anchor="middle" font-size="12" font-family="Arial">vs top_heavy</text>
<rect x="90" y="768" width="18" height="18" fill="#3b82f6"/>
<text x="118" y="782" font-size="15" font-family="Arial">Player 1 win rate</text>
<rect x="350" y="768" width="18" height="18" fill="#7c3aed"/>
<text x="378" y="782" font-size="15" font-family="Arial">Average margin</text>
</svg>