<svg xmlns="http://www.w3.org/2000/svg" width="1500" height="820" viewBox="0 0 1500 820">
<rect width="100%" height="100%" fill="#ffffff" />
<text x="750.0" y="42" text-anchor="middle" font-size="26" font-family="Arial">Draw Frequency and Tied Battlefields by Scenario</text>
<line x1="90" y1="580" x2="1460" y2="580" stroke="#222" stroke-width="2"/>
<line x1="90" y1="90" x2="90" y2="580" stroke="#222" stroke-width="2"/>
<line x1="84" y1="580.0" x2="1460" y2="580.0" stroke="#d8d8d8" stroke-width="1"/>
<text x="78" y="585.0" text-anchor="end" font-size="14" font-family="Arial">0.00</text>
<line x1="84" y1="482.0" x2="1460" y2="482.0" stroke="#d8d8d8" stroke-width="1"/>
<text x="78" y="487.0" text-anchor="end" font-size="14" font-family="Arial">0.56</text>
<line x1="84" y1="384.0" x2="1460" y2="384.0" stroke="#d8d8d8" stroke-width="1"/>
<text x="78" y="389.0" text-anchor="end" font-size="14" font-family="Arial">1.13</text>
<line x1="84" y1="286.0" x2="1460" y2="286.0" stroke="#d8d8d8" stroke-width="1"/>
<text x="78" y="291.0" text-anchor="end" font-size="14" font-family="Arial">1.69</text>
<line x1="84" y1="188.0" x2="1460" y2="188.0" stroke="#d8d8d8" stroke-width="1"/>
<text x="78" y="193.0" text-anchor="end" font-size="14" font-family="Arial">2.25</text>
<line x1="84" y1="90.0" x2="1460" y2="90.0" stroke="#d8d8d8" stroke-width="1"/>
<text x="78" y="95.0" text-anchor="end" font-size="14" font-family="Arial">2.82</text>
<rect x="117.40" y="543.74" width="85.62" height="36.26" fill="#16a34a"/>
<rect x="203.03" y="332.09" width="85.62" height="247.91" fill="#dc2626"/>
<text x="204.17" y="604" text-anchor="middle" font-size="12" font-family="Arial">baseline</text>
<text x="204.17" y="620" text-anchor="middle" font-size="12" font-family="Arial">5 bf</text>
<rect x="345.73" y="555.94" width="85.62" height="24.06" fill="#16a34a"/>
<rect x="431.36" y="376.16" width="85.62" height="203.84" fill="#dc2626"/>
<text x="432.50" y="604" text-anchor="middle" font-size="12" font-family="Arial">high_value</text>
<text x="432.50" y="620" text-anchor="middle" font-size="12" font-family="Arial">6 bf</text>
<rect x="574.07" y="559.50" width="85.62" height="20.50" fill="#16a34a"/>
<rect x="659.69" y="271.49" width="85.62" height="308.51" fill="#dc2626"/>
<text x="660.83" y="604" text-anchor="middle" font-size="12" font-family="Arial">large</text>
<text x="660.83" y="620" text-anchor="middle" font-size="12" font-family="Arial">8 bf</text>
<rect x="802.40" y="545.47" width="85.62" height="34.53" fill="#16a34a"/>
<rect x="888.02" y="323.99" width="85.62" height="256.01" fill="#dc2626"/>
<text x="889.17" y="604" text-anchor="middle" font-size="12" font-family="Arial">medium</text>
<text x="889.17" y="620" text-anchor="middle" font-size="12" font-family="Arial">6 bf</text>
<rect x="1030.73" y="547.32" width="85.62" height="32.68" fill="#16a34a"/>
<rect x="1116.36" y="417.17" width="85.62" height="162.83" fill="#dc2626"/>
<text x="1117.50" y="604" text-anchor="middle" font-size="12" font-family="Arial">small</text>
<text x="1117.50" y="620" text-anchor="middle" font-size="12" font-family="Arial">4 bf</text>
<rect x="1259.07" y="545.90" width="85.62" height="34.10" fill="#16a34a"/>
<rect x="1344.69" y="153.91" width="85.62" height="426.09" fill="#dc2626"/>
<text x="1345.83" y="604" text-anchor="middle" font-size="12" font-family="Arial">wide</text>
<text x="1345.83" y="620" text-anchor="middle" font-size="12" font-family="Arial">10 bf</text>
<rect x="90" y="768" width="18" height="18" fill="#16a34a"/>
<text x="118" y="782" font-size="15" font-family="Arial">Draw rate</text>
<rect x="350" y="768" width="18" height="18" fill="#dc2626"/>
<text x="378" y="782" font-size="15" font-family="Arial">Avg tied battlefields</text>
</svg>