<svg xmlns="http://www.w3.org/2000/svg" width="1500" height="820" viewBox="0 0 1500 820">
<rect width="100%" height="100%" fill="#ffffff" />
<text x="750.0" y="42" text-anchor="middle" font-size="26" font-family="Arial">Best Strategy Efficiency Snapshot</text>
<line x1="90" y1="580" x2="1460" y2="580" stroke="#222" stroke-width="2"/>
<line x1="90" y1="90" x2="90" y2="580" stroke="#222" stroke-width="2"/>
<line x1="84" y1="580.0" x2="1460" y2="580.0" stroke="#d8d8d8" stroke-width="1"/>
<text x="78" y="585.0" text-anchor="end" font-size="14" font-family="Arial">0.00</text>
<line x1="84" y1="482.0" x2="1460" y2="482.0" stroke="#d8d8d8" stroke-width="1"/>
<text x="78" y="487.0" text-anchor="end" font-size="14" font-family="Arial">0.72</text>
<line x1="84" y1="384.0" x2="1460" y2="384.0" stroke="#d8d8d8" stroke-width="1"/>
<text x="78" y="389.0" text-anchor="end" font-size="14" font-family="Arial">1.44</text>
<line x1="84" y1="286.0" x2="1460" y2="286.0" stroke="#d8d8d8" stroke-width="1"/>
<text x="78" y="291.0" text-anchor="end" font-size="14" font-family="Arial">2.16</text>
<line x1="84" y1="188.0" x2="1460" y2="188.0" stroke="#d8d8d8" stroke-width="1"/>
<text x="78" y="193.0" text-anchor="end" font-size="14" font-family="Arial">2.88</text>
<line x1="84" y1="90.0" x2="1460" y2="90.0" stroke="#d8d8d8" stroke-width="1"/>
<text x="78" y="95.0" text-anchor="end" font-size="14" font-family="Arial">3.60</text>
<rect x="117.40" y="484.73" width="85.62" height="95.27" fill="#0891b2"/>
<rect x="203.03" y="291.31" width="85.62" height="288.69" fill="#ea580c"/>
<text x="204.17" y="604" text-anchor="middle" font-size="12" font-family="Arial">baseline</text>
<text x="204.17" y="620" text-anchor="middle" font-size="12" font-family="Arial">weighted_value</text>
<rect x="345.73" y="478.96" width="85.62" height="101.04" fill="#0891b2"/>
<rect x="431.36" y="250.69" width="85.62" height="329.31" fill="#ea580c"/>
<text x="432.50" y="604" text-anchor="middle" font-size="12" font-family="Arial">high_value</text>
<text x="432.50" y="620" text-anchor="middle" font-size="12" font-family="Arial">weighted_value</text>
<rect x="574.07" y="476.03" width="85.62" height="103.97" fill="#0891b2"/>
<rect x="659.69" y="201.64" width="85.62" height="378.36" fill="#ea580c"/>
<text x="660.83" y="604" text-anchor="middle" font-size="12" font-family="Arial">large</text>
<text x="660.83" y="620" text-anchor="middle" font-size="12" font-family="Arial">weighted_value</text>
<rect x="802.40" y="482.79" width="85.62" height="97.21" fill="#0891b2"/>
<rect x="888.02" y="228.18" width="85.62" height="351.82" fill="#ea580c"/>
<text x="889.17" y="604" text-anchor="middle" font-size="12" font-family="Arial">medium</text>
<text x="889.17" y="620" text-anchor="middle" font-size="12" font-family="Arial">uniform</text>
<rect x="1030.73" y="490.94" width="85.62" height="89.06" fill="#0891b2"/>
<rect x="1116.36" y="329.49" width="85.62" height="250.51" fill="#ea580c"/>
<text x="1117.50" y="604" text-anchor="middle" font-size="12" font-family="Arial">small</text>
<text x="1117.50" y="620" text-anchor="middle" font-size="12" font-family="Arial">weighted_value</text>
<rect x="1259.07" y="468.90" width="85.62" height="111.10" fill="#0891b2"/>
<rect x="1344.69" y="153.91" width="85.62" height="426.09" fill="#ea580c"/>
<text x="1345.83" y="604" text-anchor="middle" font-size="12" font-family="Arial">wide</text>
<text x="1345.83" y="620" text-anchor="middle" font-size="12" font-family="Arial">weighted_value</text>
<rect x="90" y="768" width="18" height="18" fill="#0891b2"/>
<text x="118" y="782" font-size="15" font-family="Arial">Avg score share</text>
<rect x="350" y="768" width="18" height="18" fill="#ea580c"/>
<text x="378" y="782" font-size="15" font-family="Arial">Avg allocation entropy</text>
</svg>