<svg xmlns="http://www.w3.org/2000/svg" width="1500" height="820" viewBox="0 0 1500 820">
<rect width="100%" height="100%" fill="#ffffff" />
<text x="750.0" y="42" text-anchor="middle" font-size="26" font-family="Arial">Match Competitiveness by Scenario</text>
<line x1="90" y1="580" x2="1460" y2="580" stroke="#222" stroke-width="2"/>
<line x1="90" y1="90" x2="90" y2="580" stroke="#222" stroke-width="2"/>
<line x1="84" y1="580.0" x2="1460" y2="580.0" stroke="#d8d8d8" stroke-width="1"/>
<text x="78" y="585.0" text-anchor="end" font-size="14" font-family="Arial">0.00</text>
<line x1="84" y1="482.0" x2="1460" y2="482.0" stroke="#d8d8d8" stroke-width="1"/>
<text x="78" y="487.0" text-anchor="end" font-size="14" font-family="Arial">0.12</text>
<line x1="84" y1="384.0" x2="1460" y2="384.0" stroke="#d8d8d8" stroke-width="1"/>
<text x="78" y="389.0" text-anchor="end" font-size="14" font-family="Arial">0.24</text>
<line x1="84" y1="286.0" x2="1460" y2="286.0" stroke="#d8d8d8" stroke-width="1"/>
<text x="78" y="291.0" text-anchor="end" font-size="14" font-family="Arial">0.36</text>
<line x1="84" y1="188.0" x2="1460" y2="188.0" stroke="#d8d8d8" stroke-width="1"/>
<text x="78" y="193.0" text-anchor="end" font-size="14" font-family="Arial">0.48</text>
<line x1="84" y1="90.0" x2="1460" y2="90.0" stroke="#d8d8d8" stroke-width="1"/>
<text x="78" y="95.0" text-anchor="end" font-size="14" font-family="Arial">0.61</text>
<rect x="117.40" y="400.98" width="85.62" height="179.02" fill="#2563eb"/>
<rect x="203.03" y="153.91" width="85.62" height="426.09" fill="#f59e0b"/>
<text x="204.17" y="604" text-anchor="middle" font-size="12" font-family="Arial">baseline</text>
<rect x="345.73" y="510.66" width="85.62" height="69.34" fill="#2563eb"/>
<rect x="431.36" y="196.00" width="85.62" height="384.00" fill="#f59e0b"/>
<text x="432.50" y="604" text-anchor="middle" font-size="12" font-family="Arial">high_value</text>
<rect x="574.07" y="495.69" width="85.62" height="84.31" fill="#2563eb"/>
<rect x="659.69" y="162.41" width="85.62" height="417.59" fill="#f59e0b"/>
<text x="660.83" y="604" text-anchor="middle" font-size="12" font-family="Arial">large</text>
<rect x="802.40" y="329.82" width="85.62" height="250.18" fill="#2563eb"/>
<rect x="888.02" y="169.91" width="85.62" height="410.09" fill="#f59e0b"/>
<text x="889.17" y="604" text-anchor="middle" font-size="12" font-family="Arial">medium</text>
<rect x="1030.73" y="324.23" width="85.62" height="255.77" fill="#2563eb"/>
<rect x="1116.36" y="270.11" width="85.62" height="309.89" fill="#f59e0b"/>
<text x="1117.50" y="604" text-anchor="middle" font-size="12" font-family="Arial">small</text>
<rect x="1259.07" y="356.71" width="85.62" height="223.29" fill="#2563eb"/>
<rect x="1344.69" y="169.67" width="85.62" height="410.33" fill="#f59e0b"/>
<text x="1345.83" y="604" text-anchor="middle" font-size="12" font-family="Arial">wide</text>
<rect x="90" y="768" width="18" height="18" fill="#2563eb"/>
<text x="118" y="782" font-size="15" font-family="Arial">Close game rate</text>
<rect x="350" y="768" width="18" height="18" fill="#f59e0b"/>
<text x="378" y="782" font-size="15" font-family="Arial">Decisive game rate</text>
</svg>