<svg xmlns="http://www.w3.org/2000/svg" width="1500" height="820" viewBox="0 0 1500 820">
<rect width="100%" height="100%" fill="#ffffff" />
<text x="750.0" y="42" text-anchor="middle" font-size="26" font-family="Arial">New Strategy Performance by Scenario</text>
<line x1="90" y1="580" x2="1460" y2="580" stroke="#222" stroke-width="2"/>
<line x1="90" y1="90" x2="90" y2="580" stroke="#222" stroke-width="2"/>
<line x1="84" y1="580.0" x2="1460" y2="580.0" stroke="#d8d8d8" stroke-width="1"/>
<text x="78" y="585.0" text-anchor="end" font-size="14" font-family="Arial">0.00</text>
<line x1="84" y1="482.0" x2="1460" y2="482.0" stroke="#d8d8d8" stroke-width="1"/>
<text x="78" y="487.0" text-anchor="end" font-size="14" font-family="Arial">0.20</text>
<line x1="84" y1="384.0" x2="1460" y2="384.0" stroke="#d8d8d8" stroke-width="1"/>
<text x="78" y="389.0" text-anchor="end" font-size="14" font-family="Arial">0.40</text>
<line x1="84" y1="286.0" x2="1460" y2="286.0" stroke="#d8d8d8" stroke-width="1"/>
<text x="78" y="291.0" text-anchor="end" font-size="14" font-family="Arial">0.59</text>
<line x1="84" y1="188.0" x2="1460" y2="188.0" stroke="#d8d8d8" stroke-width="1"/>
<text x="78" y="193.0" text-anchor="end" font-size="14" font-family="Arial">0.79</text>
<line x1="84" y1="90.0" x2="1460" y2="90.0" stroke="#d8d8d8" stroke-width="1"/>
<text x="78" y="95.0" text-anchor="end" font-size="14" font-family="Arial">0.99</text>
<rect x="95.48" y="220.54" width="17.12" height="359.46" fill="#7c3aed"/>
<rect x="112.61" y="292.68" width="17.12" height="287.32" fill="#dc2626"/>
<text x="112.83" y="604" text-anchor="middle" font-size="12" font-family="Arial">baseline</text>
<text x="112.83" y="620" text-anchor="middle" font-size="12" font-family="Arial">anti_top_heavy</text>
<rect x="141.15" y="415.89" width="17.12" height="164.11" fill="#7c3aed"/>
<rect x="158.27" y="328.36" width="17.12" height="251.64" fill="#dc2626"/>
<text x="158.50" y="604" text-anchor="middle" font-size="12" font-family="Arial">baseline</text>
<text x="158.50" y="620" text-anchor="middle" font-size="12" font-family="Arial">balanced_priority</text>
<rect x="186.81" y="415.45" width="17.12" height="164.55" fill="#7c3aed"/>
<rect x="203.94" y="328.18" width="17.12" height="251.82" fill="#dc2626"/>
<text x="204.17" y="604" text-anchor="middle" font-size="12" font-family="Arial">baseline</text>
<text x="204.17" y="620" text-anchor="middle" font-size="12" font-family="Arial">defensive_spread</text>
<rect x="232.48" y="311.84" width="17.12" height="268.16" fill="#7c3aed"/>
<rect x="249.60" y="315.33" width="17.12" height="264.67" fill="#dc2626"/>
<text x="249.83" y="604" text-anchor="middle" font-size="12" font-family="Arial">baseline</text>
<text x="249.83" y="620" text-anchor="middle" font-size="12" font-family="Arial">noisy_weighted</text>
<rect x="278.15" y="203.38" width="17.12" height="376.62" fill="#7c3aed"/>
<rect x="295.27" y="307.95" width="17.12" height="272.05" fill="#dc2626"/>
<text x="295.50" y="604" text-anchor="middle" font-size="12" font-family="Arial">baseline</text>
<text x="295.50" y="620" text-anchor="middle" font-size="12" font-family="Arial">winner_take_most</text>
<rect x="323.81" y="217.94" width="17.12" height="362.06" fill="#7c3aed"/>
<rect x="340.94" y="276.49" width="17.12" height="303.51" fill="#dc2626"/>
<text x="341.17" y="604" text-anchor="middle" font-size="12" font-family="Arial">high_value</text>
<text x="341.17" y="620" text-anchor="middle" font-size="12" font-family="Arial">anti_top_heavy</text>
<rect x="369.48" y="413.18" width="17.12" height="166.82" fill="#7c3aed"/>
<rect x="386.61" y="341.76" width="17.12" height="238.24" fill="#dc2626"/>
<text x="386.83" y="604" text-anchor="middle" font-size="12" font-family="Arial">high_value</text>
<text x="386.83" y="620" text-anchor="middle" font-size="12" font-family="Arial">balanced_priority</text>
<rect x="415.15" y="346.81" width="17.12" height="233.19" fill="#7c3aed"/>
<rect x="432.27" y="308.53" width="17.12" height="271.47" fill="#dc2626"/>
<text x="432.50" y="604" text-anchor="middle" font-size="12" font-family="Arial">high_value</text>
<text x="432.50" y="620" text-anchor="middle" font-size="12" font-family="Arial">defensive_spread</text>
<rect x="460.81" y="295.30" width="17.12" height="284.70" fill="#7c3aed"/>
<rect x="477.94" y="306.66" width="17.12" height="273.34" fill="#dc2626"/>
<text x="478.17" y="604" text-anchor="middle" font-size="12" font-family="Arial">high_value</text>
<text x="478.17" y="620" text-anchor="middle" font-size="12" font-family="Arial">noisy_weighted</text>
<rect x="506.48" y="199.42" width="17.12" height="380.58" fill="#7c3aed"/>
<rect x="523.61" y="337.98" width="17.12" height="242.02" fill="#dc2626"/>
<text x="523.83" y="604" text-anchor="middle" font-size="12" font-family="Arial">high_value</text>
<text x="523.83" y="620" text-anchor="middle" font-size="12" font-family="Arial">winner_take_most</text>
<rect x="552.15" y="154.48" width="17.12" height="425.52" fill="#7c3aed"/>
<rect x="569.27" y="255.61" width="17.12" height="324.39" fill="#dc2626"/>
<text x="569.50" y="604" text-anchor="middle" font-size="12" font-family="Arial">large</text>
<text x="569.50" y="620" text-anchor="middle" font-size="12" font-family="Arial">anti_top_heavy</text>
<rect x="597.81" y="357.18" width="17.12" height="222.82" fill="#7c3aed"/>
<rect x="614.94" y="323.79" width="17.12" height="256.21" fill="#dc2626"/>
<text x="615.17" y="604" text-anchor="middle" font-size="12" font-family="Arial">large</text>
<text x="615.17" y="620" text-anchor="middle" font-size="12" font-family="Arial">balanced_priority</text>
<rect x="643.48" y="293.07" width="17.12" height="286.93" fill="#7c3aed"/>
<rect x="660.61" y="310.31" width="17.12" height="269.69" fill="#dc2626"/>
<text x="660.83" y="604" text-anchor="middle" font-size="12" font-family="Arial">large</text>
<text x="660.83" y="620" text-anchor="middle" font-size="12" font-family="Arial">defensive_spread</text>
<rect x="689.15" y="239.49" width="17.12" height="340.51" fill="#7c3aed"/>
<rect x="706.27" y="297.32" width="17.12" height="282.68" fill="#dc2626"/>
<text x="706.50" y="604" text-anchor="middle" font-size="12" font-family="Arial">large</text>
<text x="706.50" y="620" text-anchor="middle" font-size="12" font-family="Arial">noisy_weighted</text>
<rect x="734.81" y="577.33" width="17.12" height="2.67" fill="#7c3aed"/>
<rect x="751.94" y="380.36" width="17.12" height="199.64" fill="#dc2626"/>
<text x="752.17" y="604" text-anchor="middle" font-size="12" font-family="Arial">large</text>
<text x="752.17" y="620" text-anchor="middle" font-size="12" font-family="Arial">winner_take_most</text>
<rect x="780.48" y="216.47" width="17.12" height="363.53" fill="#7c3aed"/>
<rect x="797.61" y="275.14" width="17.12" height="304.86" fill="#dc2626"/>
<text x="797.83" y="604" text-anchor="middle" font-size="12" font-family="Arial">medium</text>
<text x="797.83" y="620" text-anchor="middle" font-size="12" font-family="Arial">anti_top_heavy</text>
<rect x="826.15" y="419.23" width="17.12" height="160.77" fill="#7c3aed"/>
<rect x="843.27" y="341.22" width="17.12" height="238.78" fill="#dc2626"/>
<text x="843.50" y="604" text-anchor="middle" font-size="12" font-family="Arial">medium</text>
<text x="843.50" y="620" text-anchor="middle" font-size="12" font-family="Arial">balanced_priority</text>
<rect x="871.81" y="349.93" width="17.12" height="230.07" fill="#7c3aed"/>
<rect x="888.94" y="310.66" width="17.12" height="269.34" fill="#dc2626"/>
<text x="889.17" y="604" text-anchor="middle" font-size="12" font-family="Arial">medium</text>
<text x="889.17" y="620" text-anchor="middle" font-size="12" font-family="Arial">defensive_spread</text>
<rect x="917.48" y="298.42" width="17.12" height="281.58" fill="#7c3aed"/>
<rect x="934.61" y="307.71" width="17.12" height="272.29" fill="#dc2626"/>
<text x="934.83" y="604" text-anchor="middle" font-size="12" font-family="Arial">medium</text>
<text x="934.83" y="620" text-anchor="middle" font-size="12" font-family="Arial">noisy_weighted</text>
<rect x="963.15" y="200.89" width="17.12" height="379.11" fill="#7c3aed"/>
<rect x="980.27" y="337.93" width="17.12" height="242.07" fill="#dc2626"/>
<text x="980.50" y="604" text-anchor="middle" font-size="12" font-family="Arial">medium</text>
<text x="980.50" y="620" text-anchor="middle" font-size="12" font-family="Arial">winner_take_most</text>
<rect x="1008.81" y="276.42" width="17.12" height="303.58" fill="#7c3aed"/>
<rect x="1025.94" y="310.09" width="17.12" height="269.91" fill="#dc2626"/>
<text x="1026.17" y="604" text-anchor="middle" font-size="12" font-family="Arial">small</text>
<text x="1026.17" y="620" text-anchor="middle" font-size="12" font-family="Arial">anti_top_heavy</text>
<rect x="1054.48" y="433.71" width="17.12" height="146.29" fill="#7c3aed"/>
<rect x="1071.61" y="355.94" width="17.12" height="224.06" fill="#dc2626"/>
<text x="1071.83" y="604" text-anchor="middle" font-size="12" font-family="Arial">small</text>
<text x="1071.83" y="620" text-anchor="middle" font-size="12" font-family="Arial">balanced_priority</text>
<rect x="1100.15" y="362.21" width="17.12" height="217.79" fill="#7c3aed"/>
<rect x="1117.27" y="327.88" width="17.12" height="252.12" fill="#dc2626"/>
<text x="1117.50" y="604" text-anchor="middle" font-size="12" font-family="Arial">small</text>
<text x="1117.50" y="620" text-anchor="middle" font-size="12" font-family="Arial">defensive_spread</text>
<rect x="1145.81" y="313.45" width="17.12" height="266.55" fill="#7c3aed"/>
<rect x="1162.94" y="318.40" width="17.12" height="261.60" fill="#dc2626"/>
<text x="1163.17" y="604" text-anchor="middle" font-size="12" font-family="Arial">small</text>
<text x="1163.17" y="620" text-anchor="middle" font-size="12" font-family="Arial">noisy_weighted</text>
<rect x="1191.48" y="210.06" width="17.12" height="369.94" fill="#7c3aed"/>
<rect x="1208.61" y="280.52" width="17.12" height="299.48" fill="#dc2626"/>
<text x="1208.83" y="604" text-anchor="middle" font-size="12" font-family="Arial">small</text>
<text x="1208.83" y="620" text-anchor="middle" font-size="12" font-family="Arial">winner_take_most</text>
<rect x="1237.15" y="153.91" width="17.12" height="426.09" fill="#7c3aed"/>
<rect x="1254.27" y="256.05" width="17.12" height="323.95" fill="#dc2626"/>
<text x="1254.50" y="604" text-anchor="middle" font-size="12" font-family="Arial">wide</text>
<text x="1254.50" y="620" text-anchor="middle" font-size="12" font-family="Arial">anti_top_heavy</text>
<rect x="1282.81" y="355.48" width="17.12" height="224.52" fill="#7c3aed"/>
<rect x="1299.94" y="326.53" width="17.12" height="253.47" fill="#dc2626"/>
<text x="1300.17" y="604" text-anchor="middle" font-size="12" font-family="Arial">wide</text>
<text x="1300.17" y="620" text-anchor="middle" font-size="12" font-family="Arial">balanced_priority</text>
<rect x="1328.48" y="288.24" width="17.12" height="291.76" fill="#7c3aed"/>
<rect x="1345.61" y="311.08" width="17.12" height="268.92" fill="#dc2626"/>
<text x="1345.83" y="604" text-anchor="middle" font-size="12" font-family="Arial">wide</text>
<text x="1345.83" y="620" text-anchor="middle" font-size="12" font-family="Arial">defensive_spread</text>
<rect x="1374.15" y="240.12" width="17.12" height="339.88" fill="#7c3aed"/>
<rect x="1391.27" y="302.94" width="17.12" height="277.06" fill="#dc2626"/>
<text x="1391.50" y="604" text-anchor="middle" font-size="12" font-family="Arial">wide</text>
<text x="1391.50" y="620" text-anchor="middle" font-size="12" font-family="Arial">noisy_weighted</text>
<rect x="1419.81" y="556.76" width="17.12" height="23.24" fill="#7c3aed"/>
<rect x="1436.94" y="346.73" width="17.12" height="233.27" fill="#dc2626"/>
<text x="1437.17" y="604" text-anchor="middle" font-size="12" font-family="Arial">wide</text>
<text x="1437.17" y="620" text-anchor="middle" font-size="12" font-family="Arial">winner_take_most</text>
<rect x="90" y="768" width="18" height="18" fill="#7c3aed"/>
<text x="118" y="782" font-size="15" font-family="Arial">Average win rate</text>
<rect x="350" y="768" width="18" height="18" fill="#dc2626"/>
<text x="378" y="782" font-size="15" font-family="Arial">Average score share</text>
</svg>