<svg xmlns="http://www.w3.org/2000/svg" width="1500" height="820" viewBox="0 0 1500 820">
<rect width="100%" height="100%" fill="#ffffff" />
<text x="750.0" y="42" text-anchor="middle" font-size="26" font-family="Arial">New Strategy Performance</text>
<line x1="90" y1="580" x2="1460" y2="580" stroke="#222" stroke-width="2"/>
<line x1="90" y1="90" x2="90" y2="580" stroke="#222" stroke-width="2"/>
<line x1="84" y1="580.0" x2="1460" y2="580.0" stroke="#d8d8d8" stroke-width="1"/>
<text x="78" y="585.0" text-anchor="end" font-size="14" font-family="Arial">0.00</text>
<line x1="84" y1="482.0" x2="1460" y2="482.0" stroke="#d8d8d8" stroke-width="1"/>
<text x="78" y="487.0" text-anchor="end" font-size="14" font-family="Arial">0.17</text>
<line x1="84" y1="384.0" x2="1460" y2="384.0" stroke="#d8d8d8" stroke-width="1"/>
<text x="78" y="389.0" text-anchor="end" font-size="14" font-family="Arial">0.35</text>
<line x1="84" y1="286.0" x2="1460" y2="286.0" stroke="#d8d8d8" stroke-width="1"/>
<text x="78" y="291.0" text-anchor="end" font-size="14" font-family="Arial">0.52</text>
<line x1="84" y1="188.0" x2="1460" y2="188.0" stroke="#d8d8d8" stroke-width="1"/>
<text x="78" y="193.0" text-anchor="end" font-size="14" font-family="Arial">0.69</text>
<line x1="84" y1="90.0" x2="1460" y2="90.0" stroke="#d8d8d8" stroke-width="1"/>
<text x="78" y="95.0" text-anchor="end" font-size="14" font-family="Arial">0.87</text>
<rect x="122.88" y="153.91" width="102.75" height="426.09" fill="#2563eb"/>
<rect x="225.63" y="234.99" width="102.75" height="345.01" fill="#16a34a"/>
<text x="227.00" y="604" text-anchor="middle" font-size="12" font-family="Arial">anti_top_heavy</text>
<rect x="396.88" y="373.57" width="102.75" height="206.43" fill="#2563eb"/>
<rect x="499.63" y="301.86" width="102.75" height="278.14" fill="#16a34a"/>
<text x="501.00" y="604" text-anchor="middle" font-size="12" font-family="Arial">balanced_priority</text>
<rect x="670.88" y="309.11" width="102.75" height="270.89" fill="#2563eb"/>
<rect x="773.63" y="278.85" width="102.75" height="301.15" fill="#16a34a"/>
<text x="775.00" y="604" text-anchor="middle" font-size="12" font-family="Arial">defensive_spread</text>
<rect x="944.88" y="241.19" width="102.75" height="338.81" fill="#2563eb"/>
<rect x="1047.63" y="269.66" width="102.75" height="310.34" fill="#16a34a"/>
<text x="1049.00" y="604" text-anchor="middle" font-size="12" font-family="Arial">noisy_weighted</text>
<rect x="1218.88" y="288.59" width="102.75" height="291.41" fill="#2563eb"/>
<rect x="1321.63" y="296.88" width="102.75" height="283.12" fill="#16a34a"/>
<text x="1323.00" y="604" text-anchor="middle" font-size="12" font-family="Arial">winner_take_most</text>
<rect x="90" y="768" width="18" height="18" fill="#2563eb"/>
<text x="118" y="782" font-size="15" font-family="Arial">Average win rate</text>
<rect x="350" y="768" width="18" height="18" fill="#16a34a"/>
<text x="378" y="782" font-size="15" font-family="Arial">Average score share</text>
</svg>