<svg xmlns="http://www.w3.org/2000/svg" width="1500" height="820" viewBox="0 0 1500 820">
<rect width="100%" height="100%" fill="#ffffff" />
<text x="750.0" y="42" text-anchor="middle" font-size="26" font-family="Arial">New Strategies vs Classic Strategies</text>
<line x1="90" y1="580" x2="1460" y2="580" stroke="#222" stroke-width="2"/>
<line x1="90" y1="90" x2="90" y2="580" stroke="#222" stroke-width="2"/>
<line x1="84" y1="580.0" x2="1460" y2="580.0" stroke="#d8d8d8" stroke-width="1"/>
<text x="78" y="585.0" text-anchor="end" font-size="14" font-family="Arial">0.00</text>
<line x1="84" y1="482.0" x2="1460" y2="482.0" stroke="#d8d8d8" stroke-width="1"/>
<text x="78" y="487.0" text-anchor="end" font-size="14" font-family="Arial">2.11</text>
<line x1="84" y1="384.0" x2="1460" y2="384.0" stroke="#d8d8d8" stroke-width="1"/>
<text x="78" y="389.0" text-anchor="end" font-size="14" font-family="Arial">4.22</text>
<line x1="84" y1="286.0" x2="1460" y2="286.0" stroke="#d8d8d8" stroke-width="1"/>
<text x="78" y="291.0" text-anchor="end" font-size="14" font-family="Arial">6.33</text>
<line x1="84" y1="188.0" x2="1460" y2="188.0" stroke="#d8d8d8" stroke-width="1"/>
<text x="78" y="193.0" text-anchor="end" font-size="14" font-family="Arial">8.45</text>
<line x1="84" y1="90.0" x2="1460" y2="90.0" stroke="#d8d8d8" stroke-width="1"/>
<text x="78" y="95.0" text-anchor="end" font-size="14" font-family="Arial">10.56</text>
<rect x="122.88" y="539.16" width="102.75" height="40.84" fill="#0f766e"/>
<rect x="225.63" y="153.91" width="102.75" height="426.09" fill="#ea580c"/>
<text x="227.00" y="604" text-anchor="middle" font-size="12" font-family="Arial">anti_top_heavy</text>
<rect x="396.88" y="547.43" width="102.75" height="32.57" fill="#0f766e"/>
<rect x="499.63" y="337.52" width="102.75" height="242.48" fill="#ea580c"/>
<text x="501.00" y="604" text-anchor="middle" font-size="12" font-family="Arial">balanced_priority</text>
<rect x="670.88" y="547.02" width="102.75" height="32.98" fill="#0f766e"/>
<rect x="773.63" y="262.57" width="102.75" height="317.43" fill="#ea580c"/>
<text x="775.00" y="604" text-anchor="middle" font-size="12" font-family="Arial">defensive_spread</text>
<rect x="944.88" y="542.75" width="102.75" height="37.25" fill="#0f766e"/>
<rect x="1047.63" y="217.64" width="102.75" height="362.36" fill="#ea580c"/>
<text x="1049.00" y="604" text-anchor="middle" font-size="12" font-family="Arial">noisy_weighted</text>
<rect x="1218.88" y="557.05" width="102.75" height="22.95" fill="#0f766e"/>
<rect x="1321.63" y="728.20" width="102.75" height="-148.20" fill="#ea580c"/>
<text x="1323.00" y="604" text-anchor="middle" font-size="12" font-family="Arial">winner_take_most</text>
<rect x="90" y="768" width="18" height="18" fill="#0f766e"/>
<text x="118" y="782" font-size="15" font-family="Arial">Average win rate vs classic</text>
<rect x="350" y="768" width="18" height="18" fill="#ea580c"/>
<text x="378" y="782" font-size="15" font-family="Arial">Average margin vs classic</text>
</svg>