<svg xmlns="http://www.w3.org/2000/svg" width="1500" height="820" viewBox="0 0 1500 820">
<rect width="100%" height="100%" fill="#ffffff" />
<text x="750.0" y="42" text-anchor="middle" font-size="26" font-family="Arial">Scenario Runtime Comparison</text>
<line x1="90" y1="580" x2="1460" y2="580" stroke="#222" stroke-width="2"/>
<line x1="90" y1="90" x2="90" y2="580" stroke="#222" stroke-width="2"/>
<line x1="84" y1="580.0" x2="1460" y2="580.0" stroke="#d8d8d8" stroke-width="1"/>
<text x="78" y="585.0" text-anchor="end" font-size="14" font-family="Arial">0.00</text>
<line x1="84" y1="482.0" x2="1460" y2="482.0" stroke="#d8d8d8" stroke-width="1"/>
<text x="78" y="487.0" text-anchor="end" font-size="14" font-family="Arial">0.64</text>
<line x1="84" y1="384.0" x2="1460" y2="384.0" stroke="#d8d8d8" stroke-width="1"/>
<text x="78" y="389.0" text-anchor="end" font-size="14" font-family="Arial">1.27</text>
<line x1="84" y1="286.0" x2="1460" y2="286.0" stroke="#d8d8d8" stroke-width="1"/>
<text x="78" y="291.0" text-anchor="end" font-size="14" font-family="Arial">1.91</text>
<line x1="84" y1="188.0" x2="1460" y2="188.0" stroke="#d8d8d8" stroke-width="1"/>
<text x="78" y="193.0" text-anchor="end" font-size="14" font-family="Arial">2.55</text>
<line x1="84" y1="90.0" x2="1460" y2="90.0" stroke="#d8d8d8" stroke-width="1"/>
<text x="78" y="95.0" text-anchor="end" font-size="14" font-family="Arial">3.18</text>
<rect x="117.40" y="578.47" width="85.62" height="1.53" fill="#2563eb"/>
<rect x="203.03" y="402.49" width="85.62" height="177.51" fill="#f97316"/>
<text x="204.17" y="604" text-anchor="middle" font-size="12" font-family="Arial">baseline</text>
<text x="204.17" y="620" text-anchor="middle" font-size="12" font-family="Arial">5 bf</text>
<text x="204.17" y="636" text-anchor="middle" font-size="12" font-family="Arial">20 troops</text>
<rect x="345.73" y="578.33" width="85.62" height="1.67" fill="#2563eb"/>
<rect x="431.36" y="523.89" width="85.62" height="56.11" fill="#f97316"/>
<text x="432.50" y="604" text-anchor="middle" font-size="12" font-family="Arial">high_value</text>
<text x="432.50" y="620" text-anchor="middle" font-size="12" font-family="Arial">6 bf</text>
<text x="432.50" y="636" text-anchor="middle" font-size="12" font-family="Arial">40 troops</text>
<rect x="574.07" y="577.99" width="85.62" height="2.01" fill="#2563eb"/>
<rect x="659.69" y="153.91" width="85.62" height="426.09" fill="#f97316"/>
<text x="660.83" y="604" text-anchor="middle" font-size="12" font-family="Arial">large</text>
<text x="660.83" y="620" text-anchor="middle" font-size="12" font-family="Arial">8 bf</text>
<text x="660.83" y="636" text-anchor="middle" font-size="12" font-family="Arial">45 troops</text>
<rect x="802.40" y="578.24" width="85.62" height="1.76" fill="#2563eb"/>
<rect x="888.02" y="507.27" width="85.62" height="72.73" fill="#f97316"/>
<text x="889.17" y="604" text-anchor="middle" font-size="12" font-family="Arial">medium</text>
<text x="889.17" y="620" text-anchor="middle" font-size="12" font-family="Arial">6 bf</text>
<text x="889.17" y="636" text-anchor="middle" font-size="12" font-family="Arial">30 troops</text>
<rect x="1030.73" y="578.61" width="85.62" height="1.39" fill="#2563eb"/>
<rect x="1116.36" y="483.94" width="85.62" height="96.06" fill="#f97316"/>
<text x="1117.50" y="604" text-anchor="middle" font-size="12" font-family="Arial">small</text>
<text x="1117.50" y="620" text-anchor="middle" font-size="12" font-family="Arial">4 bf</text>
<text x="1117.50" y="636" text-anchor="middle" font-size="12" font-family="Arial">15 troops</text>
<rect x="1259.07" y="577.83" width="85.62" height="2.17" fill="#2563eb"/>
<rect x="1344.69" y="486.06" width="85.62" height="93.94" fill="#f97316"/>
<text x="1345.83" y="604" text-anchor="middle" font-size="12" font-family="Arial">wide</text>
<text x="1345.83" y="620" text-anchor="middle" font-size="12" font-family="Arial">10 bf</text>
<text x="1345.83" y="636" text-anchor="middle" font-size="12" font-family="Arial">60 troops</text>
<rect x="90" y="768" width="18" height="18" fill="#2563eb"/>
<text x="118" y="782" font-size="15" font-family="Arial">Average runtime (ms)</text>
<rect x="350" y="768" width="18" height="18" fill="#f97316"/>
<text x="378" y="782" font-size="15" font-family="Arial">Max runtime (ms)</text>
</svg>