<svg xmlns="http://www.w3.org/2000/svg" width="1500" height="820" viewBox="0 0 1500 820">
<rect width="100%" height="100%" fill="#ffffff" />
<text x="750.0" y="42" text-anchor="middle" font-size="26" font-family="Arial">Unused Battlefields by Strategy</text>
<line x1="90" y1="580" x2="1460" y2="580" stroke="#222" stroke-width="2"/>
<line x1="90" y1="90" x2="90" y2="580" stroke="#222" stroke-width="2"/>
<line x1="84" y1="580.0" x2="1460" y2="580.0" stroke="#d8d8d8" stroke-width="1"/>
<text x="78" y="585.0" text-anchor="end" font-size="14" font-family="Arial">0.00</text>
<line x1="84" y1="482.0" x2="1460" y2="482.0" stroke="#d8d8d8" stroke-width="1"/>
<text x="78" y="487.0" text-anchor="end" font-size="14" font-family="Arial">1.00</text>
<line x1="84" y1="384.0" x2="1460" y2="384.0" stroke="#d8d8d8" stroke-width="1"/>
<text x="78" y="389.0" text-anchor="end" font-size="14" font-family="Arial">1.99</text>
<line x1="84" y1="286.0" x2="1460" y2="286.0" stroke="#d8d8d8" stroke-width="1"/>
<text x="78" y="291.0" text-anchor="end" font-size="14" font-family="Arial">2.99</text>
<line x1="84" y1="188.0" x2="1460" y2="188.0" stroke="#d8d8d8" stroke-width="1"/>
<text x="78" y="193.0" text-anchor="end" font-size="14" font-family="Arial">3.99</text>
<line x1="84" y1="90.0" x2="1460" y2="90.0" stroke="#d8d8d8" stroke-width="1"/>
<text x="78" y="95.0" text-anchor="end" font-size="14" font-family="Arial">4.98</text>
<rect x="108.27" y="580.00" width="114.17" height="0.00" fill="#b91c1c"/>
<text x="166.11" y="604" text-anchor="middle" font-size="12" font-family="Arial">anti_top_heavy</text>
<rect x="260.49" y="580.00" width="114.17" height="0.00" fill="#b91c1c"/>
<text x="318.33" y="604" text-anchor="middle" font-size="12" font-family="Arial">balanced_priority</text>
<rect x="412.71" y="580.00" width="114.17" height="0.00" fill="#b91c1c"/>
<text x="470.56" y="604" text-anchor="middle" font-size="12" font-family="Arial">defensive_spread</text>
<rect x="564.93" y="580.00" width="114.17" height="0.00" fill="#b91c1c"/>
<text x="622.78" y="604" text-anchor="middle" font-size="12" font-family="Arial">noisy_weighted</text>
<rect x="717.16" y="517.27" width="114.17" height="62.73" fill="#b91c1c"/>
<text x="775.00" y="604" text-anchor="middle" font-size="12" font-family="Arial">random_partition</text>
<rect x="869.38" y="580.00" width="114.17" height="0.00" fill="#b91c1c"/>
<text x="927.22" y="604" text-anchor="middle" font-size="12" font-family="Arial">top_heavy</text>
<rect x="1021.60" y="580.00" width="114.17" height="0.00" fill="#b91c1c"/>
<text x="1079.44" y="604" text-anchor="middle" font-size="12" font-family="Arial">uniform</text>
<rect x="1173.82" y="580.00" width="114.17" height="0.00" fill="#b91c1c"/>
<text x="1231.67" y="604" text-anchor="middle" font-size="12" font-family="Arial">weighted_value</text>
<rect x="1326.04" y="153.91" width="114.17" height="426.09" fill="#b91c1c"/>
<text x="1383.89" y="604" text-anchor="middle" font-size="12" font-family="Arial">winner_take_most</text>
<rect x="90" y="768" width="18" height="18" fill="#b91c1c"/>
<text x="118" y="782" font-size="15" font-family="Arial">Average unused battlefields</text>
</svg>