<svg xmlns="http://www.w3.org/2000/svg" width="1500" height="820" viewBox="0 0 1500 820">
<rect width="100%" height="100%" fill="#ffffff" />
<text x="750.0" y="42" text-anchor="middle" font-size="26" font-family="Arial">Allocation Style by Strategy</text>
<line x1="90" y1="580" x2="1460" y2="580" stroke="#222" stroke-width="2"/>
<line x1="90" y1="90" x2="90" y2="580" stroke="#222" stroke-width="2"/>
<line x1="84" y1="580.0" x2="1460" y2="580.0" stroke="#d8d8d8" stroke-width="1"/>
<text x="78" y="585.0" text-anchor="end" font-size="14" font-family="Arial">0.00</text>
<line x1="84" y1="482.0" x2="1460" y2="482.0" stroke="#d8d8d8" stroke-width="1"/>
<text x="78" y="487.0" text-anchor="end" font-size="14" font-family="Arial">0.61</text>
<line x1="84" y1="384.0" x2="1460" y2="384.0" stroke="#d8d8d8" stroke-width="1"/>
<text x="78" y="389.0" text-anchor="end" font-size="14" font-family="Arial">1.21</text>
<line x1="84" y1="286.0" x2="1460" y2="286.0" stroke="#d8d8d8" stroke-width="1"/>
<text x="78" y="291.0" text-anchor="end" font-size="14" font-family="Arial">1.82</text>
<line x1="84" y1="188.0" x2="1460" y2="188.0" stroke="#d8d8d8" stroke-width="1"/>
<text x="78" y="193.0" text-anchor="end" font-size="14" font-family="Arial">2.42</text>
<line x1="84" y1="90.0" x2="1460" y2="90.0" stroke="#d8d8d8" stroke-width="1"/>
<text x="78" y="95.0" text-anchor="end" font-size="14" font-family="Arial">3.03</text>
<rect x="108.27" y="188.71" width="57.08" height="391.29" fill="#ea580c"/>
<rect x="165.35" y="545.13" width="57.08" height="34.87" fill="#7c2d12"/>
<text x="166.11" y="604" text-anchor="middle" font-size="12" font-family="Arial">anti_top_heavy</text>
<rect x="260.49" y="163.29" width="57.08" height="416.71" fill="#ea580c"/>
<rect x="317.57" y="550.56" width="57.08" height="29.44" fill="#7c2d12"/>
<text x="318.33" y="604" text-anchor="middle" font-size="12" font-family="Arial">balanced_priority</text>
<rect x="412.71" y="173.58" width="57.08" height="406.42" fill="#ea580c"/>
<rect x="469.79" y="548.31" width="57.08" height="31.69" fill="#7c2d12"/>
<text x="470.56" y="604" text-anchor="middle" font-size="12" font-family="Arial">defensive_spread</text>
<rect x="564.93" y="186.92" width="57.08" height="393.08" fill="#ea580c"/>
<rect x="622.02" y="545.51" width="57.08" height="34.49" fill="#7c2d12"/>
<text x="622.78" y="604" text-anchor="middle" font-size="12" font-family="Arial">noisy_weighted</text>
<rect x="717.16" y="242.00" width="57.08" height="338.00" fill="#ea580c"/>
<rect x="774.24" y="532.39" width="57.08" height="47.61" fill="#7c2d12"/>
<text x="775.00" y="604" text-anchor="middle" font-size="12" font-family="Arial">random_partition</text>
<rect x="869.38" y="298.90" width="57.08" height="281.10" fill="#ea580c"/>
<rect x="926.46" y="506.84" width="57.08" height="73.16" fill="#7c2d12"/>
<text x="927.22" y="604" text-anchor="middle" font-size="12" font-family="Arial">top_heavy</text>
<rect x="1021.60" y="153.91" width="57.08" height="426.09" fill="#ea580c"/>
<rect x="1078.68" y="552.66" width="57.08" height="27.34" fill="#7c2d12"/>
<text x="1079.44" y="604" text-anchor="middle" font-size="12" font-family="Arial">uniform</text>
<rect x="1173.82" y="185.01" width="57.08" height="394.99" fill="#ea580c"/>
<rect x="1230.91" y="546.22" width="57.08" height="33.78" fill="#7c2d12"/>
<text x="1231.67" y="604" text-anchor="middle" font-size="12" font-family="Arial">weighted_value</text>
<rect x="1326.04" y="403.84" width="57.08" height="176.16" fill="#ea580c"/>
<rect x="1383.13" y="502.58" width="57.08" height="77.42" fill="#7c2d12"/>
<text x="1383.89" y="604" text-anchor="middle" font-size="12" font-family="Arial">winner_take_most</text>
<rect x="90" y="768" width="18" height="18" fill="#ea580c"/>
<text x="118" y="782" font-size="15" font-family="Arial">Average entropy</text>
<rect x="350" y="768" width="18" height="18" fill="#7c2d12"/>
<text x="378" y="782" font-size="15" font-family="Arial">Average HHI</text>
</svg>