<svg xmlns="http://www.w3.org/2000/svg" width="1500" height="820" viewBox="0 0 1500 820">
<rect width="100%" height="100%" fill="#ffffff" />
<text x="750.0" y="42" text-anchor="middle" font-size="26" font-family="Arial">Overall Strategy Performance</text>
<line x1="90" y1="580" x2="1460" y2="580" stroke="#222" stroke-width="2"/>
<line x1="90" y1="90" x2="90" y2="580" stroke="#222" stroke-width="2"/>
<line x1="84" y1="580.0" x2="1460" y2="580.0" stroke="#d8d8d8" stroke-width="1"/>
<text x="78" y="585.0" text-anchor="end" font-size="14" font-family="Arial">0.00</text>
<line x1="84" y1="482.0" x2="1460" y2="482.0" stroke="#d8d8d8" stroke-width="1"/>
<text x="78" y="487.0" text-anchor="end" font-size="14" font-family="Arial">0.17</text>
<line x1="84" y1="384.0" x2="1460" y2="384.0" stroke="#d8d8d8" stroke-width="1"/>
<text x="78" y="389.0" text-anchor="end" font-size="14" font-family="Arial">0.35</text>
<line x1="84" y1="286.0" x2="1460" y2="286.0" stroke="#d8d8d8" stroke-width="1"/>
<text x="78" y="291.0" text-anchor="end" font-size="14" font-family="Arial">0.52</text>
<line x1="84" y1="188.0" x2="1460" y2="188.0" stroke="#d8d8d8" stroke-width="1"/>
<text x="78" y="193.0" text-anchor="end" font-size="14" font-family="Arial">0.69</text>
<line x1="84" y1="90.0" x2="1460" y2="90.0" stroke="#d8d8d8" stroke-width="1"/>
<text x="78" y="95.0" text-anchor="end" font-size="14" font-family="Arial">0.87</text>
<rect x="108.27" y="153.91" width="57.08" height="426.09" fill="#1d4ed8"/>
<rect x="165.35" y="234.99" width="57.08" height="345.01" fill="#0f766e"/>
<text x="166.11" y="604" text-anchor="middle" font-size="12" font-family="Arial">anti_top_heavy</text>
<rect x="260.49" y="373.57" width="57.08" height="206.43" fill="#1d4ed8"/>
<rect x="317.57" y="301.86" width="57.08" height="278.14" fill="#0f766e"/>
<text x="318.33" y="604" text-anchor="middle" font-size="12" font-family="Arial">balanced_priority</text>
<rect x="412.71" y="309.11" width="57.08" height="270.89" fill="#1d4ed8"/>
<rect x="469.79" y="278.85" width="57.08" height="301.15" fill="#0f766e"/>
<text x="470.56" y="604" text-anchor="middle" font-size="12" font-family="Arial">defensive_spread</text>
<rect x="564.93" y="241.19" width="57.08" height="338.81" fill="#1d4ed8"/>
<rect x="622.02" y="269.66" width="57.08" height="310.34" fill="#0f766e"/>
<text x="622.78" y="604" text-anchor="middle" font-size="12" font-family="Arial">noisy_weighted</text>
<rect x="717.16" y="441.44" width="57.08" height="138.56" fill="#1d4ed8"/>
<rect x="774.24" y="347.27" width="57.08" height="232.73" fill="#0f766e"/>
<text x="775.00" y="604" text-anchor="middle" font-size="12" font-family="Arial">random_partition</text>
<rect x="869.38" y="482.34" width="57.08" height="97.66" fill="#1d4ed8"/>
<rect x="926.46" y="357.98" width="57.08" height="222.02" fill="#0f766e"/>
<text x="927.22" y="604" text-anchor="middle" font-size="12" font-family="Arial">top_heavy</text>
<rect x="1021.60" y="437.63" width="57.08" height="142.37" fill="#1d4ed8"/>
<rect x="1078.68" y="331.20" width="57.08" height="248.80" fill="#0f766e"/>
<text x="1079.44" y="604" text-anchor="middle" font-size="12" font-family="Arial">uniform</text>
<rect x="1173.82" y="224.69" width="57.08" height="355.31" fill="#1d4ed8"/>
<rect x="1230.91" y="259.58" width="57.08" height="320.42" fill="#0f766e"/>
<text x="1231.67" y="604" text-anchor="middle" font-size="12" font-family="Arial">weighted_value</text>
<rect x="1326.04" y="288.59" width="57.08" height="291.41" fill="#1d4ed8"/>
<rect x="1383.13" y="296.88" width="57.08" height="283.12" fill="#0f766e"/>
<text x="1383.89" y="604" text-anchor="middle" font-size="12" font-family="Arial">winner_take_most</text>
<rect x="90" y="768" width="18" height="18" fill="#1d4ed8"/>
<text x="118" y="782" font-size="15" font-family="Arial">Average win rate</text>
<rect x="350" y="768" width="18" height="18" fill="#0f766e"/>
<text x="378" y="782" font-size="15" font-family="Arial">Average score share</text>
</svg>